<svg width="24" height="24" viewBox="0 0 24 24" fill="none" xmlns="http://www.w3.org/2000/svg">
<path fill-rule="evenodd" clip-rule="evenodd" d="M11.9996 2.1001C12.4967 2.1001 12.8996 2.50304 12.8996 3.0001V11.1001H20.9996C21.4967 11.1001 21.8996 11.503 21.8996 12.0001C21.8996 12.4972 21.4967 12.9001 20.9996 12.9001H12.8996V21.0001C12.8996 21.4972 12.4967 21.9001 11.9996 21.9001C11.5026 21.9001 11.0996 21.4972 11.0996 21.0001V12.9001H2.99961C2.50255 12.9001 2.09961 12.4972 2.09961 12.0001C2.09961 11.503 2.50255 11.1001 2.99961 11.1001H11.0996V3.0001C11.0996 2.50304 11.5026 2.1001 11.9996 2.1001Z" fill="#3B5162"/>
</svg>
