<svg width="24" height="24" viewBox="0 0 24 24" fill="none" xmlns="http://www.w3.org/2000/svg">
<path fill-rule="evenodd" clip-rule="evenodd" d="M11.9996 3.9001C7.5261 3.9001 3.89961 7.52659 3.89961 12.0001C3.89961 16.4736 7.5261 20.1001 11.9996 20.1001C16.4731 20.1001 20.0996 16.4736 20.0996 12.0001C20.0996 7.52659 16.4731 3.9001 11.9996 3.9001ZM2.09961 12.0001C2.09961 6.53248 6.53199 2.1001 11.9996 2.1001C17.4672 2.1001 21.8996 6.53248 21.8996 12.0001C21.8996 17.4677 17.4672 21.9001 11.9996 21.9001C6.53199 21.9001 2.09961 17.4677 2.09961 12.0001Z" fill="#3B5162"/>
<path d="M10.4586 9.94122C10.4586 9.34712 10.9156 8.97499 11.5358 8.90317V10.9989C11.4705 10.9858 11.4118 10.9662 11.353 10.9466C10.7589 10.7508 10.4586 10.4113 10.4586 9.94122ZM13.7229 14.0151C13.7229 14.6549 13.2333 15.0792 12.5412 15.138V12.8856C12.5869 12.8987 12.6326 12.9117 12.6718 12.9183C13.403 13.1207 13.7229 13.4797 13.7229 14.0151ZM12.5543 17.3773L12.5478 16.5482C14.3366 16.3784 15.4726 15.3926 15.4726 13.8388C15.4726 12.2589 14.4084 11.593 13.0962 11.3122L12.5412 11.1947V8.91623C13.2333 9.02721 13.6185 9.5495 13.6381 10.0718H15.3094C15.2833 8.71384 14.2191 7.68232 12.5674 7.50605V6.65732H11.5097V7.49952C9.92979 7.64315 8.68935 8.51145 8.68935 10.0783C8.68935 11.5603 9.76005 12.3176 10.9744 12.5853L11.5358 12.7094V15.138C10.7002 15.027 10.2628 14.5243 10.2301 13.9237H8.51961C8.53267 15.1315 9.34222 16.4046 11.5032 16.5612L11.4967 17.3773H12.5543Z" fill="#3B5162"/>
</svg>
