<svg width="24" height="24" viewBox="0 0 24 24" fill="none" xmlns="http://www.w3.org/2000/svg">
<path d="M9.591 14.4563L9.91078 14.4576C14.5552 14.4981 17.183 15.4361 17.183 17.9983C17.183 20.5061 14.6645 21.4736 10.2231 21.5546L9.591 21.5603C4.74666 21.5603 2 20.6394 2 18.0183C2 15.3937 4.75759 14.4563 9.591 14.4563ZM9.591 15.9563C5.57365 15.9563 3.5 16.6612 3.5 18.0183C3.5 19.3667 5.56868 20.0603 9.591 20.0603C13.6086 20.0603 15.683 19.3552 15.683 17.9983C15.683 16.6505 13.6124 15.9563 9.591 15.9563ZM17.5867 13.7481C18.1673 13.7876 18.7444 13.8708 19.2991 13.9938C20.4872 14.2301 21.3705 14.6713 21.7752 15.5204C22.074 16.1491 22.074 16.8806 21.7752 17.5092C21.3728 18.3563 20.4987 18.7942 19.3039 19.04C18.8982 19.1234 18.5016 18.8622 18.4182 18.4565C18.3347 18.0507 18.596 17.6542 19.0017 17.5707C19.7705 17.4126 20.2823 17.1562 20.4204 16.8654C20.5256 16.6441 20.5256 16.3856 20.4208 16.165C20.2817 15.8732 19.7673 15.6163 18.9907 15.4616C18.4933 15.3515 17.9905 15.279 17.4849 15.2446C17.0716 15.2165 16.7594 14.8587 16.7875 14.4455C16.8156 14.0322 17.1734 13.72 17.5867 13.7481ZM9.591 2.49976C12.439 2.49976 14.726 4.78636 14.726 7.63376C14.726 10.482 12.4392 12.7688 9.591 12.7688C6.74293 12.7688 4.457 10.4821 4.457 7.63376C4.457 4.78622 6.74311 2.49976 9.591 2.49976ZM16.0197 3.56936C18.2546 3.56936 20.0667 5.38183 20.0667 7.61636C20.0667 9.85157 18.2549 11.6634 16.0197 11.6634C15.6055 11.6634 15.2697 11.3276 15.2697 10.9134C15.2697 10.4991 15.6055 10.1634 16.0197 10.1634C17.4265 10.1634 18.5667 9.02314 18.5667 7.61636C18.5667 6.21019 17.4261 5.06936 16.0197 5.06936C15.6055 5.06936 15.2697 4.73357 15.2697 4.31936C15.2697 3.90514 15.6055 3.56936 16.0197 3.56936ZM9.591 3.99976C7.57159 3.99976 5.957 5.6146 5.957 7.63376C5.957 9.65379 7.57146 11.2688 9.591 11.2688C11.6108 11.2688 13.226 9.65354 13.226 7.63376C13.226 5.61484 11.6107 3.99976 9.591 3.99976Z" fill="#3B5162"/>
</svg>
