<svg width="24" height="24" viewBox="0 0 24 24" fill="none" xmlns="http://www.w3.org/2000/svg">
<path d="M14.4733 2.00024C14.5164 2.00024 14.5586 2.00387 14.5996 2.01084L14.736 2.01194C14.9402 2.01194 15.1356 2.0952 15.277 2.24249L20.343 7.51849C20.4771 7.65817 20.552 7.8443 20.552 8.03794V17.2279C20.552 19.7229 18.5277 21.8649 16.072 21.8649H8.084C5.50084 21.8649 3.5 19.8255 3.5 17.2279V6.49094C3.5 4.02977 5.5967 2.01194 8.084 2.01194L14.3472 2.0108C14.3882 2.00386 14.4303 2.00024 14.4733 2.00024ZM13.723 3.51024L8.084 3.51194C6.41254 3.51194 5 4.87134 5 6.49094V17.2279C5 19.0034 6.33576 20.3649 8.084 20.3649H16.072C17.6797 20.3649 19.052 18.9129 19.052 17.2279L19.051 8.98324L18.1752 8.98631C17.8417 8.98591 17.4624 8.9852 17.0407 8.98424C15.2704 8.9805 13.8261 7.59372 13.7285 5.84765L13.7233 5.65924L13.723 3.51024ZM11.6403 8.69084C12.02 8.69084 12.3338 8.973 12.3835 9.33907L12.3903 9.44084L12.39 14.1952L13.9475 12.634C14.2397 12.3405 14.7146 12.3395 15.0081 12.6318C15.2749 12.8975 15.3 13.3141 15.0828 13.6082L15.0103 13.6925L12.1713 16.5435L12.1276 16.584C12.1172 16.5929 12.1066 16.6015 12.0957 16.6098L12.1713 16.5435C12.1346 16.5804 12.0949 16.6127 12.053 16.6404C12.0385 16.6498 12.023 16.6592 12.0071 16.6682C11.9937 16.676 11.9805 16.6828 11.9671 16.6893C11.9507 16.697 11.9339 16.7045 11.9167 16.7113C11.8997 16.7182 11.882 16.7245 11.8641 16.7301C11.8505 16.7341 11.8368 16.738 11.8229 16.7415C11.8029 16.7467 11.7828 16.7509 11.7625 16.7542C11.7506 16.7559 11.7385 16.7576 11.7264 16.759C11.7028 16.762 11.6791 16.7636 11.6553 16.7641C11.6504 16.7638 11.6454 16.7638 11.6403 16.7638L11.6253 16.7641C11.6009 16.7636 11.5765 16.762 11.5522 16.7591L11.6403 16.7638C11.5994 16.7638 11.5593 16.7606 11.5203 16.7543C11.4983 16.7512 11.4766 16.7467 11.4551 16.7412C11.444 16.738 11.4326 16.7348 11.4214 16.7314C11.3995 16.7252 11.3782 16.7177 11.3571 16.7091C11.3459 16.704 11.3348 16.6991 11.3238 16.694C11.3063 16.6865 11.2889 16.6776 11.2719 16.668C11.2569 16.6588 11.2417 16.6495 11.227 16.6398C11.2151 16.6327 11.2038 16.6247 11.1926 16.6164L11.1849 16.6098C11.174 16.6015 11.1634 16.5929 11.153 16.584L11.1084 16.5434L8.27036 13.6924C7.97814 13.3988 7.97922 12.9239 8.27278 12.6317C8.53966 12.366 8.95638 12.3428 9.24949 12.5613L9.33344 12.6341L10.89 14.1982L10.8903 9.44084C10.8903 9.02663 11.2261 8.69084 11.6403 8.69084ZM15.223 4.35124L15.2233 5.65924C15.2233 6.66581 16.0376 7.48212 17.044 7.48425L18.231 7.48424L15.223 4.35124Z" fill="#3B5162"/>
</svg>
