<svg width="24" height="24" viewBox="0 0 24 24" fill="none" xmlns="http://www.w3.org/2000/svg">
<path fill-rule="evenodd" clip-rule="evenodd" d="M5.78217 2.78217C6.07493 2.48941 6.50608 2.25 7 2.25H12.5C14.2151 2.25 15.67 2.80698 16.6966 3.8485C17.4467 4.60944 17.9309 5.59109 18.1366 6.7134C19.9388 7.9036 20.75 9.89886 20.75 12C20.75 13.5106 19.9949 14.8302 18.9287 15.7543C17.8646 16.6765 16.443 17.25 15 17.25H13.0353L12.5398 20.2233C12.5383 20.2322 12.5367 20.241 12.5349 20.2498C12.4531 20.6511 12.2331 21.0109 11.9134 21.2667C11.5959 21.5207 11.1999 21.6562 10.7935 21.65H8.10583C7.92153 21.6524 7.73894 21.6139 7.57117 21.5374C7.40056 21.4596 7.24964 21.3444 7.1296 21.2003C7.00956 21.0563 6.92346 20.8871 6.87769 20.7052C6.83415 20.5322 6.82816 20.3521 6.85999 20.1768L6.92096 19.75H5C4.50608 19.75 4.07493 19.5106 3.78217 19.2178C3.48941 18.9251 3.25 18.4939 3.25 18C3.25 17.9645 3.25252 17.9291 3.25754 17.8939L5.25126 3.93786C5.27029 3.46996 5.50176 3.06258 5.78217 2.78217ZM8.50794 19.2477L8.37904 20.15H10.8L10.8151 20.1502C10.8736 20.1513 10.9307 20.132 10.9763 20.0954C11.0197 20.0608 11.0502 20.0127 11.0632 19.9589L11.6602 16.3767C11.7205 16.0151 12.0334 15.75 12.4 15.75H15C16.057 15.75 17.1354 15.3235 17.9463 14.6207C18.7551 13.9198 19.25 12.9894 19.25 12C19.25 10.7288 18.8955 9.59903 18.1887 8.75092C17.9912 9.96684 17.3343 11.1014 16.4678 11.9678C15.4251 13.0106 13.9939 13.75 12.5 13.75H10C9.93408 13.75 9.90152 13.7608 9.88977 13.7656C9.87963 13.7697 9.87212 13.7745 9.86209 13.7853C9.83587 13.8136 9.77626 13.9045 9.7398 14.1233C9.7369 14.1407 9.7334 14.1579 9.72929 14.175L8.52929 19.175C8.52334 19.1998 8.5162 19.2241 8.50794 19.2477ZM7.2087 18.25L8.26497 13.8489C8.33065 13.4757 8.47138 13.0786 8.7629 12.7647C9.08273 12.4202 9.51524 12.25 10 12.25H12.5C13.5061 12.25 14.5749 11.7394 15.4072 10.9072C16.2394 10.0749 16.75 9.00608 16.75 8C16.75 6.65978 16.3284 5.6117 15.6284 4.9015C14.93 4.19302 13.8849 3.75 12.5 3.75H7C6.99392 3.75 6.92507 3.76059 6.84283 3.84283C6.76059 3.92507 6.75 3.99392 6.75 4C6.75 4.03549 6.74748 4.07093 6.74246 4.10607L4.75457 18.0213C4.76292 18.0489 4.78541 18.0997 4.84283 18.1572C4.92507 18.2394 4.99392 18.25 5 18.25H7.2087Z" fill="#3B5162"/>
</svg>
